Coordinates
nRows=124
nColumns=2
inDegrees=yes
endheader
time	ankle_angle_r	
3.00605	 -5.268341	
3.07762	 -5.271462	
3.14919	 -5.283001	
3.22077	 -5.245720	
3.29234	 -5.205189	
3.36391	 -5.253017	
3.43548	 -5.253190	
3.50706	 -5.128121	
3.57863	 -5.115582	
3.6502	 -5.236027	
3.72177	 -5.223674	
3.79335	 -5.147669	
3.86492	 -5.201239	
3.93649	 -5.281322	
4.00806	 -5.282042	
4.07964	 -5.253934	
4.15121	 -5.253002	
4.22278	 -5.269829	
4.29435	 -5.288685	
4.36593	 -5.274075	
4.4375	 -5.243317	
4.50907	 -5.282968	
4.58065	 -5.313848	
4.65222	 -5.277809	
4.72379	 -5.249424	
4.79536	 -5.250104	
4.86694	 -5.254166	
4.93851	 -5.194633	
5.01008	 -5.156799	
5.08165	 -5.217076	
5.15323	 -5.235812	
5.2248	 -5.207503	
5.29637	 -5.190467	
5.36794	 -5.173803	
5.43952	 -5.187933	
5.51109	 -5.201439	
5.58266	 -5.188479	
5.65423	 -5.221265	
5.72581	 -5.281423	
5.79738	 -5.264273	
5.86895	 -5.228262	
5.94052	 -5.260039	
6.0121	 -5.282900	
6.08367	 -5.257423	
6.15524	 -5.225508	
6.22681	 -5.203181	
6.29839	 -5.170017	
6.36996	 -5.117310	
6.44153	 -5.082856	
6.5131	 -5.131805	
6.58468	 -5.231701	
6.65625	 -5.196412	
6.72782	 -5.085831	
6.7994	 -5.104387	
6.87097	 -5.144137	
6.94254	 -5.097052	
7.01411	 -5.077521	
7.08569	 -5.110758	
7.15726	 -5.093884	
7.22883	 -5.089193	
7.3004	 -5.140150	
7.37198	 -5.174803	
7.44355	 -5.223846	
7.51512	 -5.243805	
7.58669	 -5.217329	
7.65827	 -5.236948	
7.72984	 -5.287586	
7.80141	 -5.296231	
7.87298	 -5.237700	
7.94456	 -5.211841	
8.01613	 -5.262911	
8.0877	 -5.290858	
8.15927	 -5.259334	
8.23085	 -5.247942	
8.30242	 -5.311893	
8.37399	 -5.281173	
8.44556	 -5.182505	
8.51714	 -5.203237	
8.58871	 -5.178725	
8.66028	 -5.129483	
8.73185	 -5.158667	
8.80343	 -5.114833	
8.875	 -5.061287	
8.94657	 -5.095387	
9.01815	 -5.152246	
9.08972	 -5.194269	
9.16129	 -5.244655	
9.23286	 -5.286041	
9.30444	 -5.251958	
9.37601	 -5.219578	
9.44758	 -5.248357	
9.51915	 -5.276010	
9.59073	 -5.284832	
9.6623	 -5.270150	
9.73387	 -5.261919	
9.80544	 -5.267693	
9.87702	 -5.229552	
9.94859	 -5.197212	
10.0202	 -5.179604	
10.0917	 -5.114668	
10.1633	 -5.125052	
10.2349	 -5.221464	
10.3065	 -5.270379	
10.378	 -5.300148	
10.4496	 -5.279730	
10.5212	 -5.200074	
10.5927	 -5.191624	
10.6643	 -5.219072	
10.7359	 -5.179229	
10.8075	 -5.128412	
10.879	 -5.144733	
10.9506	 -5.209291	
11.0222	 -5.240725	
11.0937	 -5.189925	
11.1653	 -5.146925	
11.2369	 -5.144103	
11.3085	 -5.120253	
11.38	 -5.159349	
11.4516	 -5.225158	
11.5232	 -5.200160	
11.5948	 -5.176426	
11.6663	 -5.148838	
11.7379	 -5.101470	
11.8095	 -5.142418	
